<?xml version="1.0" encoding="utf-8"?>
<svg version="1.1" id="Capa_1" x="0px" y="0px" viewBox="0 0 512 512" style="enable-background:new 0 0 512 512;" xmlns="http://www.w3.org/2000/svg">
  <path fill="#ce1327" d="M254,0C112.6,0-2,114.6-2,256s114.6,256,256,256s256-114.6,256-256S395.4,0,254,0z M187.4,179.8 c3.5-3.5,8.2-5.3,12.8-5.3s9.3,1.8,12.8,5.3l22.7,22.7v-6.7v-89.2c0-10,8.1-18.1,18.1-18.1c10,0,18.1,8.1,18.1,18.1v89.2v7.9 l7.9-7.9l16-16c3.5-3.5,8.2-5.3,12.8-5.3s9.3,1.8,12.8,5.3c4.4,4.4,6,10.4,5,16l0,0c-0.1,0.4-0.2,0.8-0.3,1.2 c-0.2,0.6-0.3,1.2-0.5,1.9c-0.2,0.4-0.3,0.8-0.5,1.2c-0.3,0.6-0.6,1.2-1,1.8c-0.2,0.3-0.4,0.6-0.6,0.9c-0.6,0.9-1.3,1.8-2.1,2.6 l-25.8,25.8l-28.3,28.3c-3.5,3.5-8.2,5.3-12.8,5.3h-0.1h-0.1c-4.6,0-9.3-1.8-12.8-5.3l-28.3-28.3l-25.8-25.8 c-0.8-0.8-1.5-1.7-2.1-2.6c-0.2-0.3-0.4-0.6-0.6-1c-0.4-0.6-0.7-1.2-1-1.8c-0.2-0.4-0.4-0.8-0.5-1.2c-0.2-0.6-0.4-1.2-0.5-1.8 c-0.1-0.4-0.2-0.8-0.3-1.3C181.4,190.2,183,184.2,187.4,179.8z M393.2,357.2L393.2,357.2c0,24.5-24,43.6-54.6,43.6H169.4 c-30.6,0-54.6-19.2-54.6-43.6V239.5c0-20.7,17.2-37.5,41-42.3c1,10.2,5.5,19.7,12.9,27l7,7h-6.2c-12.4,0-19.2,6.2-19.2,8.2v117.8 c0,2,6.8,8.2,19.2,8.2h169.2c12.4,0,19.2-6.2,19.2-8.2V239.5c0-2-6.8-8.2-19.2-8.2h-5.3l7-7c7.3-7.3,11.8-16.7,12.8-26.8 c23.3,5,40.1,21.7,40.1,42.1L393.2,357.2L393.2,357.2z"/>
</svg>