<?xml version="1.0" encoding="utf-8"?>
<svg version="1.1" id="Capa_1" x="0px" y="0px" viewBox="0 0 512 512" style="enable-background:new 0 0 512 512;" xmlns="http://www.w3.org/2000/svg">
  <path fill="#ce1327" d="M 0 0 L 512 0 L 512 512 L 0 512 Z M 450.6 219 L 260.2 219 L 260.2 297.3 L 366.2 297.3 C 356.8 322.8 338.6 344 315.5 357.6 L 315.534 357.809 L 315.4 357.7 C 298 367.9 277.7 373.8 256 373.8 C 205.5 373.8 162.5 342 145.8 297.4 L 145.766 297.428 L 145.8 297.3 C 141 284.5 138.3 270.6 138.3 256 C 138.3 242.5 140.5 229.7 144.6 217.7 L 144.543 217.572 L 144.7 217.7 C 160.6 171.6 204.4 138.3 256 138.3 C 278.9 138.3 300.3 144.9 318.3 156.1 L 382.4 103.6 C 348.1 75.1 304.1 58 256 58 C 179.5 58 113.1 101.4 80.2 164.9 L 80.229 164.924 L 80.1 164.9 C 66 192.2 58 223.2 58 256 C 58 289.9 66.6 321.9 81.6 349.9 C 115.1 411.8 180.6 454 256 454 C 302.9 454 346 437.6 379.9 410.4 L 379.893 410.395 L 380 410.4 C 414.9 382.4 440 342.8 449.7 297.4 C 452.6 284 454 270.1 454 256 C 454 243.4 452.8 231 450.6 219 Z" class="st0"/>
</svg>