<?xml version="1.0" encoding="utf-8"?>
<svg version="1.1" id="Layer_1" x="0px" y="0px" viewBox="0 0 512 512" style="enable-background:new 0 0 512 512;" xmlns="http://www.w3.org/2000/svg">
  <path fill="#ce1327" d="M256,205.1c-28.1,0-50.9,22.8-50.9,50.9s22.9,50.9,50.9,50.9c28.1,0,50.9-22.9,50.9-50.9 C306.9,227.9,284.1,205.1,256,205.1z M256,205.1c-28.1,0-50.9,22.8-50.9,50.9s22.9,50.9,50.9,50.9c28.1,0,50.9-22.9,50.9-50.9 C306.9,227.9,284.1,205.1,256,205.1z M340.8,122.1H171.2c-27.1,0-49.1,22-49.1,49.1v169.6c0,27.1,22,49.1,49.1,49.1h169.6 c27.1,0,49.1-22,49.1-49.1V171.2C389.9,144.1,367.9,122.1,340.8,122.1z M256,344.2c-48.6,0-88.2-39.6-88.2-88.2 s39.6-88.2,88.2-88.2s88.2,39.6,88.2,88.2S304.6,344.2,256,344.2z M347,186.1c-11.5,0-20.9-9.4-20.9-20.9s9.4-20.9,20.9-20.9 s20.9,9.4,20.9,20.9C367.9,176.7,358.5,186.1,347,186.1z M256,205.1c-28.1,0-50.9,22.8-50.9,50.9s22.9,50.9,50.9,50.9 c28.1,0,50.9-22.9,50.9-50.9C306.9,227.9,284.1,205.1,256,205.1z M340.8,122.1H171.2c-27.1,0-49.1,22-49.1,49.1v169.6 c0,27.1,22,49.1,49.1,49.1h169.6c27.1,0,49.1-22,49.1-49.1V171.2C389.9,144.1,367.9,122.1,340.8,122.1z M256,344.2 c-48.6,0-88.2-39.6-88.2-88.2s39.6-88.2,88.2-88.2s88.2,39.6,88.2,88.2S304.6,344.2,256,344.2z M347,186.1 c-11.5,0-20.9-9.4-20.9-20.9s9.4-20.9,20.9-20.9s20.9,9.4,20.9,20.9C367.9,176.7,358.5,186.1,347,186.1z M256,205.1 c-28.1,0-50.9,22.8-50.9,50.9s22.9,50.9,50.9,50.9c28.1,0,50.9-22.9,50.9-50.9C306.9,227.9,284.1,205.1,256,205.1z M0,0v512h512V0 H0z M427.2,340.8c0,47.6-38.7,86.4-86.4,86.4H171.2c-47.6,0-86.4-38.7-86.4-86.4V171.2c0-47.6,38.7-86.4,86.4-86.4h169.6 c47.6,0,86.4,38.7,86.4,86.4L427.2,340.8L427.2,340.8z M340.8,122.1H171.2c-27.1,0-49.1,22-49.1,49.1v169.6 c0,27.1,22,49.1,49.1,49.1h169.6c27.1,0,49.1-22,49.1-49.1V171.2C389.9,144.1,367.9,122.1,340.8,122.1z M256,344.2 c-48.6,0-88.2-39.6-88.2-88.2s39.6-88.2,88.2-88.2s88.2,39.6,88.2,88.2S304.6,344.2,256,344.2z M347,186.1 c-11.5,0-20.9-9.4-20.9-20.9s9.4-20.9,20.9-20.9s20.9,9.4,20.9,20.9C367.9,176.7,358.5,186.1,347,186.1z M256,205.1 c-28.1,0-50.9,22.8-50.9,50.9s22.9,50.9,50.9,50.9c28.1,0,50.9-22.9,50.9-50.9C306.9,227.9,284.1,205.1,256,205.1z M256,205.1 c-28.1,0-50.9,22.8-50.9,50.9s22.9,50.9,50.9,50.9c28.1,0,50.9-22.9,50.9-50.9C306.9,227.9,284.1,205.1,256,205.1z M256,205.1 c-28.1,0-50.9,22.8-50.9,50.9s22.9,50.9,50.9,50.9c28.1,0,50.9-22.9,50.9-50.9C306.9,227.9,284.1,205.1,256,205.1z M340.8,122.1 H171.2c-27.1,0-49.1,22-49.1,49.1v169.6c0,27.1,22,49.1,49.1,49.1h169.6c27.1,0,49.1-22,49.1-49.1V171.2 C389.9,144.1,367.9,122.1,340.8,122.1z M256,344.2c-48.6,0-88.2-39.6-88.2-88.2s39.6-88.2,88.2-88.2s88.2,39.6,88.2,88.2 S304.6,344.2,256,344.2z M347,186.1c-11.5,0-20.9-9.4-20.9-20.9s9.4-20.9,20.9-20.9s20.9,9.4,20.9,20.9 C367.9,176.7,358.5,186.1,347,186.1z M256,205.1c-28.1,0-50.9,22.8-50.9,50.9s22.9,50.9,50.9,50.9c28.1,0,50.9-22.9,50.9-50.9 C306.9,227.9,284.1,205.1,256,205.1z M256,205.1c-28.1,0-50.9,22.8-50.9,50.9s22.9,50.9,50.9,50.9c28.1,0,50.9-22.9,50.9-50.9 C306.9,227.9,284.1,205.1,256,205.1z M256,205.1c-28.1,0-50.9,22.8-50.9,50.9s22.9,50.9,50.9,50.9c28.1,0,50.9-22.9,50.9-50.9 C306.9,227.9,284.1,205.1,256,205.1z M340.8,122.1H171.2c-27.1,0-49.1,22-49.1,49.1v169.6c0,27.1,22,49.1,49.1,49.1h169.6 c27.1,0,49.1-22,49.1-49.1V171.2C389.9,144.1,367.9,122.1,340.8,122.1z M256,344.2c-48.6,0-88.2-39.6-88.2-88.2 s39.6-88.2,88.2-88.2s88.2,39.6,88.2,88.2S304.6,344.2,256,344.2z M347,186.1c-11.5,0-20.9-9.4-20.9-20.9s9.4-20.9,20.9-20.9 s20.9,9.4,20.9,20.9C367.9,176.7,358.5,186.1,347,186.1z M256,205.1c-28.1,0-50.9,22.8-50.9,50.9s22.9,50.9,50.9,50.9 c28.1,0,50.9-22.9,50.9-50.9C306.9,227.9,284.1,205.1,256,205.1z"/>
</svg>