<?xml version="1.0" encoding="utf-8"?>
<svg version="1.1" id="Layer_1" x="0px" y="0px" viewBox="0 0 512 512" style="enable-background:new 0 0 512 512;" xmlns="http://www.w3.org/2000/svg">
  <path fill="#ce1327" d="M 277.3 229.9 L 277.3 229.2 C 277.1 229.5 276.9 229.7 276.8 229.9 Z M 0 0 L 0 512 L 512 512 L 512 0 Z M 159.3 425.4 L 83.3 425.4 L 83.3 196.8 L 159.3 196.8 Z M 121.3 165.6 L 120.8 165.6 C 95.3 165.6 78.8 148 78.8 126.1 C 78.8 103.7 95.8 86.6 121.8 86.6 C 147.8 86.6 163.8 103.7 164.3 126.1 C 164.2 148.1 147.8 165.6 121.3 165.6 Z M 433.2 425.4 L 357.2 425.4 L 357.2 303.1 C 357.2 272.4 346.2 251.4 318.7 251.4 C 297.7 251.4 285.2 265.5 279.7 279.2 C 277.7 284.1 277.2 290.9 277.2 297.7 L 277.2 425.3 L 201.2 425.3 C 201.2 425.3 202.2 218.2 201.2 196.8 L 277.2 196.8 L 277.2 229.2 C 287.3 213.7 305.3 191.5 345.7 191.5 C 395.7 191.5 433.2 224.2 433.2 294.3 Z"/>
</svg>