<?xml version="1.0" encoding="utf-8"?>
<svg version="1.1" id="Capa_1" xmlns="http://www.w3.org/2000/svg" xmlns:xlink="http://www.w3.org/1999/xlink" x="0px" y="0px"
	 viewBox="0 0 512 512" style="enable-background:new 0 0 512 512;" xml:space="preserve">
<path fill="#ce1327" d="M256,0C114.7,0,0,114.7,0,256s114.7,256,256,256s256-114.7,256-256S397.3,0,256,0z M256,89.9l151.6,94.4
			H104.4L256,89.9z M409.4,335.2L409.4,335.2c0,15.2-12.3,27.5-27.5,27.5H130c-15.2,0-27.5-12.3-27.5-27.5V190.3
			c0-1.5,0.2-3.2,0.5-4.6L247.8,276c0.2,0.2,0.3,0.2,0.5,0.3c0.2,0.2,0.3,0.2,0.5,0.3c1,0.5,2,1,3.1,1.2c0.2,0,0.2,0,0.3,0
			c1.2,0.3,2.4,0.5,3.6,0.5l0,0l0,0c1.2,0,2.4-0.2,3.6-0.5c0.2,0,0.2,0,0.3,0c1-0.3,2-0.7,3.1-1.2c0.2-0.2,0.3-0.2,0.5-0.3
			c0.2-0.2,0.3-0.2,0.5-0.3l144.7-90.3c0.3,1.5,0.5,3.1,0.5,4.6L409.4,335.2L409.4,335.2z"/>
</svg>
