<?xml version="1.0" encoding="utf-8"?>
<svg version="1.1" id="Capa_1" xmlns="http://www.w3.org/2000/svg" xmlns:xlink="http://www.w3.org/1999/xlink" x="0px" y="0px"
	 viewBox="0 0 512 512" style="enable-background:new 0 0 512 512;" xml:space="preserve">
<path fill="#ce1327" d="M256,0C114.6,0,0,114.6,0,256s114.6,256,256,256s256-114.6,256-256S397.4,0,256,0z M391.2,373.5L370.7,394
			c-3.7,3.7-14.4,5.9-14.7,5.9c-64.8,0.6-127.3-24.9-173.2-70.8c-46-46-71.5-108.7-70.8-173.7c0,0,2.3-10.4,6-14.1l20.5-20.5
			c7.5-7.5,21.9-10.9,32-7.6l4.3,1.4c10.1,3.4,20.6,14.5,23.4,24.8l10.3,37.8c2.8,10.3-1,24.9-8.5,32.4l-13.7,13.7
			c13.4,49.7,52.5,88.8,102.2,102.3l13.7-13.7c7.5-7.5,22.2-11.3,32.4-8.5l37.8,10.3c10.3,2.8,21.4,13.3,24.8,23.4l1.4,4.4
			C402.1,351.7,398.7,366.1,391.2,373.5z"/>
</svg>
