<?xml version="1.0" encoding="utf-8"?>
<svg version="1.1" id="Layer_1" x="0px" y="0px" viewBox="0 0 512 512" style="enable-background:new 0 0 512 512;" xmlns="http://www.w3.org/2000/svg">
  <path fill="#ce1327" d="M 512 256 C 512 397.385 397.385 512 256 512 C 114.615 512 0 397.385 0 256 C 0 114.615 114.615 0 256 0 C 397.385 0 512 114.615 512 256 Z M 286.895 336 L 365.5 398.9 L 365.5 335.56 C 398.368 331.769 423.907 303.964 424 270.1 L 424 193.9 C 423.9 157.6 394.5 128.1 358.1 128 L 153.9 128 C 117.6 128.1 88.1 157.5 88 193.9 L 88 270.1 C 88.1 306.4 117.5 335.9 153.9 336 Z M 325.2 254 C 330.2 257.1 336.1 258.9 342 259 C 351.3 259 355.6 254.4 355.6 248.6 C 355.6 242.5 352 239.2 342.6 235.7 C 330 231.3 324 224.3 324 215.9 C 324 204.6 333.1 195.3 348.2 195.3 C 354.2 195.2 360.1 196.7 365.4 199.6 L 362.2 208.9 C 357.9 206.2 352.9 204.8 347.9 204.8 C 340.4 204.8 336.1 209.1 336.1 214.3 C 336.1 220.1 340.3 222.7 349.4 226.1 C 361.6 230.7 367.8 236.8 367.8 247.2 C 367.8 259.5 358.3 268.2 341.6 268.2 C 333.9 268.2 326.8 266.3 321.9 263.4 Z M 205.6 197 L 216.7 197 L 217.3 208.3 L 217.7 208.3 C 221.6 201.7 228.1 195.4 239.7 195.4 C 249.2 195.4 256.5 201.2 259.5 209.5 L 259.8 209.5 C 261.7 205.9 264.4 202.8 267.6 200.4 C 271.8 197.2 276.4 195.4 283.1 195.4 C 292.4 195.4 306.1 201.5 306.1 225.8 L 306.1 267 L 293.7 267 L 293.7 227.4 C 293.7 214 288.7 205.8 278.5 205.8 C 271.3 205.8 265.6 211.2 263.5 217.4 C 262.9 219.5 262.5 221.6 262.5 223.8 L 262.5 267.1 L 250 267.1 L 250 225.1 C 250 214 245.1 205.8 235.4 205.8 C 227.5 205.8 221.6 212.2 219.6 218.5 C 218.9 220.5 218.6 222.6 218.6 224.7 L 218.6 267 L 206.1 267 L 206.2 216 C 206.2 208.8 206 202.8 205.6 197 Z M 147.1 254 C 152.1 257.1 158 258.9 163.9 259 C 173.2 259 177.5 254.4 177.5 248.6 C 177.5 242.5 173.9 239.2 164.5 235.7 C 151.9 231.2 145.9 224.3 145.9 215.9 C 145.9 204.6 155 195.3 170.1 195.3 C 176.1 195.2 182 196.7 187.3 199.6 L 184.1 208.9 C 179.8 206.2 174.8 204.8 169.8 204.8 C 162.3 204.8 158 209.1 158 214.3 C 158 220.1 162.2 222.7 171.3 226.1 C 183.5 230.7 189.7 236.8 189.7 247.2 C 189.7 259.5 180.2 268.2 163.5 268.2 C 155.8 268.2 148.7 266.3 143.8 263.4 Z" />
</svg>