<?xml version="1.0" encoding="utf-8"?>
<svg version="1.1" x="0px" y="0px" viewBox="0 0 512 512" style="enable-background:new 0 0 512 512;" xmlns="http://www.w3.org/2000/svg">
  <path fill="#ce1327" d="M 511.2 255.6 C 511.2 396.8 396.8 511.2 255.6 511.2 C 114.4 511.2 0 396.8 0 255.6 C 0 114.4 114.4 0 255.6 0 C 396.8 0 511.2 114.4 511.2 255.6 Z M 440.5 284.8 L 371.3 215.6 L 371.3 111.9 L 325.2 111.9 L 325.2 169.5 L 256 100.4 L 71.5 284.8 L 71.5 296.3 L 117.6 296.3 L 117.6 411.6 L 232.9 411.6 L 232.9 342.4 L 279 342.4 L 279 411.6 L 394.3 411.6 L 394.3 296.4 L 440.4 296.4 L 440.4 284.8 Z"/>
</svg>