<?xml version="1.0" encoding="utf-8"?>
<svg version="1.1" id="Capa_1" x="0px" y="0px" viewBox="0 0 512 512" style="enable-background:new 0 0 512 512;" xmlns="http://www.w3.org/2000/svg">
  <path fill="#ce1327" d="M 224.8 380.6 C 222.4 383.6 219.6 386.2 215.9 387.5 C 212.7 388.7 210.1 387.2 209.5 383.9 C 209.2 382.6 209.2 381.2 209.2 379.9 C 209.2 355.1 209.1 304.3 209.1 303.7 L 190.8 303.7 C 190.8 304.4 190.8 375.1 190.8 388.5 C 190.8 392.1 191.2 395.7 192.7 399.1 C 194.3 402.7 197 405 201 405.7 C 203.9 406.2 206.8 405.9 209.6 404.9 C 215.3 402.9 219.8 399.2 223.7 394.8 C 224 394.4 224.4 394 225.1 393.3 L 225.1 404.4 L 243.4 404.4 C 243.4 387.6 243.4 303.5 243.4 303.5 L 225.1 303.5 L 225.1 378.7 C 225.1 379.3 225.1 380.1 224.8 380.6 Z M 311.8 311.6 C 307.9 303.4 299.8 301.2 292.8 302.9 C 288.5 304 285.1 306.4 282.2 309.6 C 281.3 310.7 280.2 312.7 280.2 312.7 C 280.2 312.7 280.2 282.3 280.2 267.7 L 261.8 267.7 L 261.8 404.3 L 280.2 404.3 L 280.2 396.6 C 280.2 396.6 281.5 398 282 398.5 C 286.2 403.1 291.3 405.6 297.6 405.6 C 305.4 405.7 310.7 401.9 313.2 394.6 C 314.3 391.2 314.7 387.6 314.7 384.1 C 314.7 365 314.7 345.9 314.7 326.8 C 314.7 321.6 314.1 316.4 311.8 311.6 Z M 295.8 381.9 C 295.8 382.9 295.7 384 295.5 385 C 294.7 389 291.6 390.8 287.3 389.9 C 284.7 389.4 282.6 387.9 280.9 386 C 280.8 385.9 280.3 385.2 280.3 385.2 L 280.3 323.1 C 280.3 323.1 280.7 322 281.6 321.2 C 283.8 319.3 286.1 318.1 289.1 318.4 C 291.6 318.6 293.7 319.8 294.6 322.2 C 295.3 324 295.9 326 295.9 327.9 C 295.9 345.8 295.8 363.8 295.8 381.9 Z M 245.8 192.6 C 250.1 192.6 253.6 189.1 253.6 184.8 L 253.6 130 C 253.6 125.7 250.1 122.2 245.8 122.2 C 241.5 122.2 238 125.7 238 130 L 238 184.8 C 238 189.1 241.5 192.6 245.8 192.6 Z M 190.9 267.8 L 127.3 267.8 L 127.3 287.4 L 148.7 287.4 L 148.7 404.4 L 169.4 404.4 L 169.4 287.4 L 190.9 287.4 Z M 364.2 381.6 C 364.2 386.1 360.5 389.8 356 389.8 C 351.5 389.8 347.8 386.1 347.8 381.6 L 347.8 356.4 L 383 356.4 C 383 356.4 383.2 338.8 383.1 330.8 C 383 327.4 382.8 323.9 382.1 320.6 C 380.3 312 375.6 305.5 367 302.6 C 364.4 301.8 361.7 301.3 359 301.2 C 350.1 300.6 342.2 303.2 336.1 310 C 330.7 316 328.9 323.2 328.9 331 C 328.9 346 328.8 360.9 328.9 375.9 C 328.9 379.7 329.4 383.6 330.2 387.3 C 332.1 395.3 336.4 401.5 344.1 405 C 349.7 407.5 355.6 407.7 361.6 406.8 C 371.2 405.4 377.8 400.2 381 390.9 C 383.4 383.9 383.1 368.6 383.1 368.6 L 364.2 368.6 Z M 356 318.4 C 360.5 318.4 364.2 322.1 364.2 326.6 L 364.2 340.7 L 347.8 340.7 L 347.8 326.6 C 347.8 322.1 351.5 318.4 356 318.4 Z M 0 0 L 0 512 L 512 512 L 512 0 Z M 307 106.7 L 307 184 C 307 185 307.1 186.1 307.3 187.1 C 307.9 190.3 310.2 191.8 313.3 190.7 C 317 189.4 319.9 186.8 322.3 183.8 C 322.6 183.4 322.6 182.6 322.6 181.9 L 322.6 106.7 L 341.4 106.7 L 341.4 208.1 L 322.6 208.1 L 322.6 197.2 C 320.5 199.2 318.7 201.2 316.8 202.9 C 313.3 205.9 309.4 208.2 304.9 209.1 C 297.9 210.5 291.9 208.3 289.7 201 C 289 198.6 288.5 196 288.5 193.4 L 288.4 106.7 Z M 245.8 104.2 C 260.7 104.2 272.7 116.2 272.7 131.1 L 272.7 183.7 C 272.7 198.6 260.7 210.6 245.8 210.6 C 230.9 210.6 218.9 198.6 218.9 183.7 L 218.9 131.1 C 218.9 116.2 230.9 104.2 245.8 104.2 Z M 173.4 70.9 C 173.4 70.9 181.9 107.2 186 124.4 C 190.1 107.2 198.6 70.9 198.6 70.9 L 220 70.9 C 220 70.9 203.6 125.4 196.2 149.7 C 195.9 150.6 195.8 151.5 195.8 152.5 L 195.8 208.2 L 176.1 208.2 L 176.1 152.5 C 176.1 151.6 176 150.6 175.7 149.7 C 168.4 125.4 151.9 70.9 151.9 70.9 Z M 363.7 440 C 291.9 441.5 220.2 441.5 148.4 440 C 123.5 439.5 103.6 419.1 103.6 394.2 L 103.6 282.1 C 103.6 257.2 123.5 236.8 148.4 236.3 C 220.2 234.8 292 234.8 363.7 236.3 C 388.6 236.8 408.5 257.2 408.5 282.1 L 408.5 394.2 C 408.5 419.1 388.6 439.5 363.7 440 Z"/>
</svg>